<svg aria-hidden="true" style="position: absolute; width: 0; height: 0; overflow: hidden;" version="1.1" xmlns="http://www.w3.org/2000/svg" xmlns:xlink="http://www.w3.org/1999/xlink">
<defs>
<symbol id="icon-antenna" viewBox="0 0 32 32">
<path fill="#212121" style="fill: var(--color1, #212121)" d="M30.766 22.080l-8.457-8.503 0.96-4.571c0.229 0.046 0.457 0.137 0.777 0.137 0.007 0 0.016 0 0.025 0 1.187 0 2.149-0.962 2.149-2.149s-0.962-2.149-2.149-2.149c-1.187 0-2.149 0.962-2.149 2.149 0 0.245 0.041 0.481 0.117 0.701l-0.005-0.015-4.983 0.594-8.091-8.137c-0.091-0.091-0.229-0.137-0.366-0.137s-0.274 0.046-0.366 0.137l-1.509 1.509c-0.229 0.229-0.229 0.549 0 0.777l0.823 0.777c-1.129 2.053-1.794 4.499-1.794 7.1 0 4.161 1.7 7.925 4.444 10.635l0.002 0.002-0.046 0.549v6.217h-6.4c-0.014-0-0.030-0-0.046-0-1.464 0-2.651 1.187-2.651 2.651 0 0 0 0 0 0v-0 1.051c0 0.32 0.274 0.549 0.549 0.549h24.549c0.274 0 0.503-0.229 0.503-0.549v-1.051c0-1.463-1.189-2.651-2.651-2.651h-6.4v-2.743c0.899 0.191 1.932 0.3 2.991 0.3 2.586 0 5.020-0.653 7.146-1.803l-0.080 0.039 0.869 0.823c0.091 0.091 0.229 0.137 0.366 0.137s0.274-0.046 0.366-0.137l1.509-1.509c0.229-0.229 0.229-0.549 0-0.777zM23.314 6.217c0.186-0.169 0.434-0.272 0.706-0.272 0.581 0 1.051 0.471 1.051 1.051 0 0.555-0.431 1.010-0.976 1.049l-0.003 0c-0.021 0.002-0.046 0.002-0.072 0.002-0.581 0-1.051-0.471-1.051-1.051 0-0.309 0.133-0.586 0.345-0.779l0.001-0.001zM22.080 9.737l-0.594 2.926-1.189-1.143 1.783-1.783zM21.486 8.823l-1.92 1.92-1.509-1.509 3.429-0.411zM24 28.8c0.914 0 1.6 0.731 1.6 1.6v0.549h-23.451v-0.549c0-0.914 0.686-1.6 1.6-1.6h20.251zM16.549 26.651v1.097h-5.349v-1.097h5.349zM11.2 25.6v-4.069c0-1.28 1.189-2.331 2.651-2.331 1.509 0 2.697 1.051 2.697 2.331v4.069h-5.349zM17.6 23.909v-2.423c0-1.829-1.691-3.383-3.749-3.383-1.326 0-2.56 0.64-3.246 1.783-2.369-2.481-3.827-5.85-3.827-9.559 0-2.319 0.57-4.505 1.578-6.426l-0.036 0.076 18.606 18.743c-1.816 0.94-3.965 1.492-6.242 1.492-1.093 0-2.157-0.127-3.177-0.367l0.094 0.019zM28.891 23.223l-0.731-0.823-19.566-19.657-0.823-0.686 0.777-0.777 7.909 8 13.257 13.12-0.777 0.777z"></path>
<path fill="#2196f3" style="fill: var(--color2, #2196f3)" d="M13.897 20.251c-0.884 0-1.6 0.716-1.6 1.6s0.716 1.6 1.6 1.6v0c0.884 0 1.6-0.716 1.6-1.6s-0.716-1.6-1.6-1.6v0zM14.263 22.263c-0.101 0.112-0.247 0.183-0.409 0.183-0.303 0-0.549-0.246-0.549-0.549s0.244-0.547 0.546-0.549h0c0.001 0 0.002 0 0.003 0 0.303 0 0.549 0.246 0.549 0.549 0 0.141-0.053 0.269-0.14 0.366l0-0z"></path>
</symbol>

<symbol id="icon-astronaut" viewBox="0 0 32 32">
<path fill="#2196f3" style="fill: var(--color2, #2196f3)" d="M32 4.526c-0.091-0.183-0.274-0.32-0.457-0.366l-1.92-0.274-0.823-1.737c-0.183-0.366-0.777-0.366-0.96 0l-0.914 1.737-1.829 0.274c-0.265 0.042-0.465 0.269-0.465 0.542 0 0.144 0.055 0.275 0.146 0.372l-0-0 1.371 1.371-0.32 1.874c-0.002 0.015-0.002 0.033-0.002 0.051 0 0.303 0.246 0.549 0.549 0.549 0.084 0 0.163-0.019 0.234-0.052l-0.003 0.001 1.691-0.914 1.691 0.914c0.068 0.032 0.147 0.051 0.231 0.051 0.303 0 0.549-0.246 0.549-0.549 0-0.018-0.001-0.036-0.003-0.053l0 0.002-0.32-1.92 1.371-1.371c0.183-0.091 0.229-0.32 0.137-0.503zM29.531 5.851c-0.137 0.137-0.183 0.32-0.183 0.457l0.183 1.143-0.96-0.549c-0.073-0.038-0.16-0.061-0.251-0.061s-0.178 0.023-0.254 0.062l0.003-0.001-1.006 0.549 0.183-1.143c0-0.137 0-0.32-0.137-0.457l-0.823-0.777 1.097-0.183c0.183 0 0.32-0.137 0.457-0.274l0.457-1.006 0.503 0.96c0.091 0.137 0.229 0.274 0.411 0.274l1.097 0.183-0.777 0.777zM26.149 20.526h-1.097v1.051h1.097v-1.006zM26.149 22.674h-1.097v1.051h1.097v-1.051zM27.2 21.577h-1.051v1.097h1.051v-1.097zM25.051 21.577h-1.051v1.097h1.051v-1.097zM22.4 26.377h-1.051v1.097h1.051v-1.097zM22.4 28.526h-1.051v1.051h1.051v-1.051zM23.451 27.429h-1.051v1.097h1.051v-1.097zM21.349 27.429h-1.097v1.097h1.097v-1.097zM16 24.229h-1.051v1.097h1.051v-1.097zM16 26.377h-1.051v1.097h1.051v-1.097zM17.051 25.326h-1.051v1.051h1.051v-1.051zM14.949 25.326h-1.097v1.051h1.097v-1.051zM5.851 6.126h-1.051v1.051h1.051v-1.051zM5.851 8.229h-1.051v1.097h1.051v-1.097z"></path>
<path fill="#2196f3" style="fill: var(--color2, #2196f3)" d="M6.949 7.177h-1.097v1.097h1.097v-1.097zM4.8 7.177h-1.051v1.097h1.051v-1.097z"></path>
<path fill="#212121" style="fill: var(--color1, #212121)" d="M24.686 14.171c-0.266-0.377-0.668-0.643-1.132-0.73l-0.011-0.002c-0.457-0.046-0.96 0.091-1.371 0.366l-1.234 0.96-1.92 1.417-1.371-0.549c2.403-1.128 4.037-3.528 4.037-6.309 0-3.81-3.067-6.904-6.867-6.948l-0.004-0c-3.818 0.025-6.904 3.127-6.904 6.948 0 1.392 0.409 2.689 1.114 3.776l-0.016-0.027h-3.017l-3.2 1.646-1.92 0.914h-0.091c-0.524 0.317-0.869 0.884-0.869 1.531 0 0.985 0.799 1.784 1.784 1.784 0.338 0 0.653-0.094 0.922-0.257l-0.008 0.004 1.371-0.731 2.286-1.143h1.371l-5.44 5.349-1.371 1.371c-0.286 0.296-0.462 0.699-0.462 1.143s0.176 0.847 0.462 1.143l-0-0c0.3 0.313 0.722 0.507 1.189 0.507s0.889-0.194 1.188-0.507l0.001-0.001 1.371-1.28 1.691-1.28 0.914 0.914-1.783 1.737-1.28 1.371c-0.299 0.298-0.484 0.71-0.484 1.166s0.185 0.868 0.484 1.166l0 0c0.3 0.313 0.722 0.507 1.189 0.507s0.888-0.194 1.188-0.507l0.001-0.001 3.429-3.429 1.006-0.96 5.166-5.714 3.474 0.503c0.041 0.012 0.088 0.019 0.137 0.019s0.096-0.007 0.141-0.020l-0.004 0.001 0.046-0.046h0.046l3.2-2.149 0.046-0.046h0.046l1.28-1.234c0.345-0.326 0.559-0.786 0.559-1.297 0-0.388-0.124-0.747-0.334-1.040l0.004 0.005zM2.194 17.783c-0.183 0.091-0.366 0.091-0.594 0-0.264-0.114-0.445-0.373-0.445-0.673 0-0.225 0.101-0.426 0.261-0.56l0.001-0.001 1.28-0.64 0.32 0.914 0.137 0.457-0.96 0.457zM5.669 15.954l-1.554 0.777-0.274-0.731-0.183-0.549 2.011-1.006v1.554zM20.754 9.326c0 0.914-0.183 1.783-0.594 2.56l-4.16-1.92c-0.041-0.569-0.336-1.061-0.771-1.368l-0.006-0.004 1.463-4.846c2.377 0.731 4.114 2.971 4.114 5.577zM9.006 9.326c0.032-3.232 2.66-5.841 5.897-5.841 0.226 0 0.448 0.013 0.667 0.037l-0.027-0.002-1.417 4.709c-0.027-0.001-0.059-0.002-0.091-0.002-1.010 0-1.829 0.819-1.829 1.829 0 0.001 0 0.002 0 0.002v-0c-0.013 0.081-0.020 0.175-0.020 0.271 0 1.010 0.819 1.829 1.829 1.829 0.779 0 1.444-0.487 1.707-1.172l0.004-0.012 3.84 1.783c-1.088 1.432-2.791 2.347-4.709 2.347-3.23 0-5.854-2.597-5.897-5.818l-0-0.004zM14.949 10.103c0 0.457-0.366 0.823-0.823 0.823s-0.777-0.366-0.777-0.823 0.32-0.777 0.777-0.777 0.823 0.366 0.823 0.777zM2.514 25.189c-0.229 0.183-0.64 0.183-0.869 0-0.131-0.11-0.215-0.274-0.215-0.457s0.083-0.347 0.214-0.456l0.001-0.001 0.96-0.914 0.869 0.823-1.006 0.96zM5.714 28.846c-0.229 0.274-0.594 0.274-0.823 0-0.102-0.107-0.165-0.252-0.165-0.411s0.063-0.305 0.166-0.412l0.914-0.914 0.457 0.366 0.457 0.457-1.006 0.914zM9.189 25.417l-1.737 1.737-0.457-0.366-0.411-0.457 1.783-1.783 0.091-0.137v-0.183l0.046-0.091v-0.183l-0.137-0.137v-0.046l-1.6-1.6h-0.091l-0.091-0.091h-0.091l-0.091-0.046h-0.183l-0.091 0.046h-0.183l-1.737 1.371-0.914-0.914 2.377-2.377 4.389 4.297-0.914 0.914zM16.046 18.377h-0.046c-0.014-0.001-0.030-0.002-0.046-0.002-0.14 0-0.269 0.053-0.366 0.14l0.001-0v0.046l-4.8 5.211-4.343-4.251 2.834-2.834c0.088-0.097 0.141-0.226 0.141-0.367 0-0.288-0.222-0.525-0.505-0.547l-0.002-0h-2.24v-1.6h3.109c1.266 1.312 3.039 2.127 5.003 2.127 0.445 0 0.881-0.042 1.303-0.122l-0.043 0.007 0.137 0.091 2.423 0.914 0.137 0.777 0.183 0.914-2.971-0.457zM20.069 18.56l-0.32-1.554 1.463-1.051 0.366 0.457 0.549 0.777-2.057 1.371zM23.817 15.726l-0.823 0.823-0.914-1.28 0.823-0.594c0.137-0.137 0.32-0.183 0.503-0.183 0.372 0.037 0.661 0.349 0.661 0.728 0 0.197-0.078 0.375-0.204 0.507l0-0z"></path>
<path fill="#212121" style="fill: var(--color1, #212121)" d="M13.623 18.56l-2.194-2.149c-0.229-0.229-0.549-0.229-0.777 0l-2.149 2.149c-0.087 0.097-0.14 0.225-0.14 0.366s0.053 0.269 0.14 0.366l-0-0 2.149 2.149c0.099 0.1 0.237 0.161 0.389 0.161s0.289-0.062 0.389-0.161v0l2.149-2.149c0.087-0.097 0.14-0.225 0.14-0.366s-0.053-0.269-0.14-0.366l0 0zM11.063 20.297l-1.371-1.371 1.371-1.371 1.371 1.371-1.371 1.371zM17.143 5.029l-0.229 1.097c0.046 0 1.737 0.457 1.737 2.149h1.006c0-2.057-1.646-2.971-2.56-3.2zM19.703 9.326h-1.051v1.051h1.006v-1.051z"></path>
</symbol>

<symbol id="icon-clock" viewBox="0 0 32 32">
<path fill="#212121" style="fill: var(--color1, #212121)" d="M31.314 15.314c0-0.005 0-0.010 0-0.016 0-8.458-6.856-15.314-15.314-15.314s-15.314 6.856-15.314 15.314c0 6.859 4.51 12.665 10.726 14.615l0.108 0.029c0.137 0 0.229-0.046 0.366-0.137 0.137-0.046 0.229-0.183 0.274-0.366l3.84-12.206c1.058-0.003 1.915-0.861 1.915-1.92 0-1.060-0.86-1.92-1.92-1.92-0.297 0-0.578 0.067-0.829 0.188l0.012-0.005-5.12-5.12c-0.117-0.117-0.279-0.189-0.457-0.189-0.357 0-0.646 0.289-0.646 0.646 0 0.179 0.072 0.34 0.189 0.457l5.12 5.12c-0.114 0.235-0.18 0.511-0.18 0.802 0 0.602 0.284 1.137 0.725 1.48l0.004 0.003-3.657 11.703c-5.431-2.020-9.229-7.159-9.229-13.186 0-7.751 6.283-14.034 14.034-14.034s14.034 6.283 14.034 14.034c0 5.684-3.379 10.578-8.237 12.785l-0.088 0.036-0.366-1.874c-0.057-0.3-0.317-0.524-0.63-0.524-0.162 0-0.31 0.060-0.423 0.159l0.001-0.001-3.84 3.429c-0.137 0.118-0.223 0.292-0.223 0.485 0 0.286 0.188 0.529 0.447 0.61l0.005 0.001 4.891 1.6c0.058 0.019 0.125 0.030 0.195 0.030 0.353 0 0.64-0.287 0.64-0.64 0-0.043-0.004-0.085-0.012-0.126l0.001 0.004-0.366-1.829c5.527-2.379 9.326-7.778 9.326-14.065 0-0.005 0-0.011 0-0.016v0.001zM16 14.629c0.353 0 0.64 0.287 0.64 0.64s-0.287 0.64-0.64 0.64v0c-0.353 0-0.64-0.287-0.64-0.64s0.287-0.64 0.64-0.64v0zM18.103 29.486l2.194-1.966 0.594 2.834-2.789-0.914z"></path>
<path fill="#2196f3" style="fill: var(--color2, #2196f3)" d="M15.36 3.2v1.28c0 0.353 0.287 0.64 0.64 0.64s0.64-0.287 0.64-0.64v-1.28c0-0.353-0.287-0.64-0.64-0.64s-0.64 0.287-0.64 0.64v0zM3.886 14.629c-0.366 0-0.663 0.297-0.663 0.663s0.297 0.663 0.663 0.663h1.28c0.353 0 0.64-0.287 0.64-0.64s-0.287-0.64-0.64-0.64h-1.28zM28.114 15.954c0.353 0 0.64-0.287 0.64-0.64s-0.287-0.64-0.64-0.64h-1.28c-0.353 0-0.64 0.287-0.64 0.64s0.287 0.64 0.64 0.64h1.28z"></path>
</symbol>

<symbol id="icon-company_1" viewBox="0 0 29 32">
<path fill="#afb1b8" style="fill: var(--color3, #afb1b8)" d="M3.84 0l4.672 4.48h13.056v12.288l4.672 4.48v-21.248h-22.4z"></path>
<path fill="#afb1b8" style="fill: var(--color3, #afb1b8)" d="M0 4.224v20.608h21.76v-8.192l-13.12-12.416h-8.64zM17.6 21.824h-14.144v-13.824h0.96v12.864h13.184v0.96zM6.272 28.608l0.512-1.024h0.512l-0.768 1.472v0.832h-0.512v-0.832l-0.704-1.536h0.448l0.448 1.024zM8.512 29.376h-0.832l-0.128 0.512h-0.512l0.832-2.304h0.448l0.832 2.304h-0.448l-0.192-0.512zM7.872 28.992h0.512l-0.256-0.832-0.32 0.832zM10.112 29.248l0.064-0.32 0.32-0.256-0.128-0.256-0.064-0.256c0-0.192 0-0.32 0.128-0.448s0.32-0.128 0.512-0.128c0.128 0 0.256 0 0.384 0.128 0.128 0.064 0.192 0.192 0.192 0.384s-0.128 0.32-0.32 0.448l-0.128 0.128 0.384 0.448 0.064-0.384h0.384c0 0.32 0 0.512-0.192 0.704l0.32 0.448h-0.512l-0.128-0.192c-0.128 0.128-0.32 0.192-0.576 0.192-0.192 0-0.384 0-0.512-0.192-0.116-0.114-0.189-0.272-0.192-0.448v-0zM10.88 29.504l0.32-0.064-0.448-0.512h-0.064l-0.128 0.32 0.064 0.192 0.256 0.064zM10.688 28.16c0 0.064 0 0.192 0.128 0.256h0.128l0.128-0.192v-0.192h-0.32v0.192zM14.848 29.12c0 0.256-0.064 0.448-0.256 0.576-0.128 0.128-0.384 0.192-0.64 0.192s-0.512-0.128-0.64-0.32c-0.192-0.192-0.32-0.448-0.32-0.768v-0.128l0.128-0.64c0.141-0.271 0.42-0.453 0.741-0.453 0.032 0 0.064 0.002 0.095 0.005l-0.004-0c0.256 0 0.512 0 0.64 0.192 0.192 0.128 0.256 0.32 0.256 0.64h-0.448c0-0.192 0-0.32-0.128-0.384l-0.32-0.064c-0.128 0-0.256 0-0.32 0.128-0.128 0.128-0.128 0.32-0.128 0.512v0.192c0 0.256 0 0.448 0.128 0.512 0 0.128 0.192 0.192 0.32 0.192l0.32-0.064 0.128-0.32h0.448zM17.024 28.8l-0.064 0.576c-0.146 0.307-0.455 0.516-0.811 0.516-0.030 0-0.059-0.001-0.088-0.004l0.004 0c-0.192 0-0.32 0-0.512-0.128l-0.32-0.384c-0.082-0.164-0.13-0.358-0.13-0.563 0-0.027 0.001-0.054 0.003-0.081l-0 0.004v-0.064c0-0.192 0-0.448 0.128-0.64 0.158-0.271 0.446-0.45 0.777-0.45 0.019 0 0.039 0.001 0.058 0.002l-0.003-0c0.192 0 0.384 0 0.512 0.128 0.128 0.064 0.256 0.192 0.32 0.384 0.128 0.128 0.128 0.384 0.128 0.576v0.128zM16.576 28.672c0-0.256 0-0.448-0.128-0.576-0.081-0.082-0.194-0.133-0.318-0.133-0.023 0-0.046 0.002-0.068 0.005l0.003-0c-0.128 0-0.256 0-0.32 0.128-0.128 0.128-0.128 0.32-0.128 0.576v0.128c0 0.192 0 0.384 0.128 0.512 0 0.128 0.192 0.192 0.32 0.192 0.192 0 0.32 0 0.384-0.192l0.128-0.512v-0.128z"></path>
</symbol>

<symbol id="icon-company_2" viewBox="0 0 25 32">
<path fill="#afb1b8" style="fill: var(--color3, #afb1b8)" d="M10.462 1.846h0.554c0.738 0 1.477 0.123 2.215 0.308v-1.723c-0.957-0.264-2.058-0.421-3.194-0.431l-0.006-0h-0.185c-0.021-0-0.046-0-0.071-0-3.422 0-6.626 0.938-9.367 2.57l0.084-0.046v17.477c2.419-1.34 5.28-2.189 8.324-2.337l0.045-0.002h0.677v-1.846c-2.398 0.055-4.675 0.502-6.793 1.278l0.147-0.047-0.615 0.185v-13.662l0.246-0.123c2.13-1.006 4.626-1.595 7.26-1.6h0.679z"></path>
<path fill="#afb1b8" style="fill: var(--color3, #afb1b8)" d="M14.831 3.692c-1.213-0.025-2.376-0.18-3.494-0.453l0.11 0.023v17.231c1.108 0.308 2.215 0.492 3.385 0.431 0.024 0 0.053 0 0.082 0 3.39 0 6.567-0.914 9.298-2.509l-0.088 0.047v-17.231c-2.661 1.506-5.835 2.412-9.216 2.461l-0.015 0zM21.723 3.938l0.615-0.185v13.6l-0.246 0.123c-2.17 1.069-4.724 1.695-7.424 1.695-0.376 0-0.749-0.012-1.118-0.036l0.050 0.003h-0.369v-14.092h1.538c2.47-0.004 4.839-0.432 7.040-1.215l-0.148 0.046zM1.662 25.969c-0.161-0.15-0.377-0.243-0.615-0.246h-0.431c-0.362 0.13-0.617 0.471-0.617 0.871 0 0.018 0.001 0.037 0.002 0.055l-0-0.003v2.338c0 0.185 0 0.369 0.123 0.492 0 0.123 0.123 0.246 0.185 0.308l0.369 0.185h0.677c0.364-0.15 0.615-0.502 0.615-0.913 0-0.004-0-0.007-0-0.011v0.001-0.246h-0.615v0.369l-0.246 0.246h-0.123c-0.017 0.003-0.037 0.005-0.058 0.005-0.103 0-0.194-0.050-0.249-0.128l-0.001-0.001-0.062-0.369v-2.462c0.048-0.11 0.157-0.186 0.282-0.186 0.009 0 0.018 0 0.026 0.001l-0.001-0c0.111 0.014 0.203 0.085 0.245 0.183l0.001 0.002c0.123 0.062 0.123 0.185 0.123 0.308v0.185h0.615v-0.246c-0.008-0.287-0.123-0.546-0.308-0.739l0 0zM5.292 25.969c-0.188-0.151-0.429-0.243-0.692-0.243-0.127 0-0.248 0.021-0.362 0.060l0.008-0.002c-0.123 0-0.246 0.062-0.308 0.185l-0.246 0.308-0.062 0.431v2.277l0.062 0.431c0 0.123 0.123 0.246 0.246 0.308 0.062 0.123 0.185 0.185 0.308 0.185 0.11 0.043 0.237 0.067 0.369 0.067s0.26-0.025 0.376-0.070l-0.007 0.002c0.123 0 0.246-0.062 0.308-0.185 0.19-0.18 0.308-0.434 0.308-0.715 0-0.008-0-0.016-0-0.024l0 0.001v-2.277l-0.062-0.431c0-0.123-0.123-0.246-0.246-0.308zM5.046 28.923c0 0.002 0 0.004 0 0.006 0 0.117-0.047 0.224-0.123 0.302l0-0c-0.078 0.080-0.187 0.129-0.308 0.129s-0.229-0.049-0.308-0.129l-0-0c-0.076-0.078-0.123-0.184-0.123-0.302 0-0.002 0-0.004 0-0.006v0-2.277c0.025-0.074 0.068-0.136 0.123-0.184l0-0c0.078-0.080 0.187-0.129 0.308-0.129s0.229 0.049 0.308 0.129l0 0c0.076 0.078 0.123 0.184 0.123 0.302 0 0.002-0 0.004-0 0.006v-0 2.277zM10.092 29.969v-4.246h-0.615l-0.738 2.277-0.8-2.277h-0.615v4.246h0.615v-2.585l0.615 1.846h0.308l0.615-1.846v2.585h0.615zM13.538 26.031l-0.369-0.246h-1.354v4.185h0.615v-1.662h0.308c0.185 0 0.369 0 0.554-0.123l0.308-0.308 0.185-0.369c0.033-0.167 0.051-0.358 0.051-0.554s-0.019-0.387-0.054-0.573l0.003 0.019-0.246-0.369zM13.231 27.262l-0.062 0.308-0.185 0.123c-0.046 0.012-0.099 0.020-0.154 0.020s-0.108-0.007-0.158-0.020l0.004 0.001h-0.246v-1.415h0.308l0.246 0.062 0.185 0.185v0.8zM16.369 25.723h-0.492l-0.923 4.246h0.615l0.185-0.923h0.8l0.185 0.923h0.615l-0.985-4.246zM15.815 28.492l0.308-1.538 0.308 1.538h-0.615zM20.308 28.308l-0.985-2.585h-0.554v4.246h0.615v-2.523l0.923 2.523h0.615v-4.246h-0.615v2.585zM24 25.723l-0.492 1.662-0.554-1.662h-0.615l0.862 2.462v1.785h0.615v-1.846l0.8-2.4h-0.615zM0 31.138h0.308v0.862h0.185v-0.862h0.308v-0.123h-0.8v0.123zM2.462 31.015l-0.369 0.985h0.185l0.062-0.246h0.431l0.062 0.246h0.246l-0.431-0.985h-0.185zM2.462 31.631l0.062-0.431 0.185 0.369h-0.308zM4.923 31.631h0.185v0.123l-0.246 0.062c-0.006 0.001-0.013 0.001-0.021 0.001-0.063 0-0.12-0.024-0.164-0.063l0 0-0.123-0.246c0-0.246 0.123-0.369 0.308-0.369 0.018-0.007 0.040-0.011 0.062-0.011 0.102 0 0.185 0.083 0.185 0.185 0 0.004-0 0.007-0 0.011l0-0h0.185c0-0.246-0.185-0.369-0.431-0.369l-0.369 0.123c-0.082 0.088-0.132 0.206-0.132 0.336 0 0.034 0.003 0.066 0.010 0.098l-0.001-0.003c0 0.123 0 0.246 0.123 0.369 0.087 0.077 0.202 0.125 0.328 0.125 0.015 0 0.029-0.001 0.043-0.002l-0.002 0c0.185 0 0.308 0 0.431-0.185v-0.369h-0.431v0.185zM7.385 31.015h-0.246v0.985h0.677v-0.185h-0.431v-0.8zM9.415 31.015h-0.185v0.985h0.185v-0.985zM11.446 31.631l-0.369-0.615h-0.185v0.985h0.185v-0.615l0.369 0.615h0.185v-0.985h-0.185v0.615zM13.292 31.569h0.492v-0.185h-0.492v-0.246h0.554v-0.123h-0.738v0.985h0.738v-0.185h-0.554v-0.246zM17.846 31.385h-0.431v-0.369h-0.185v0.985h0.185v-0.431h0.369v0.431h0.185v-0.985h-0.123v0.369zM19.692 31.569h0.431v-0.185h-0.431v-0.246h0.554v-0.123h-0.738v0.985h0.738v-0.185h-0.554v-0.246zM22.154 31.569c0.185 0 0.246-0.123 0.246-0.308 0.001-0.006 0.001-0.013 0.001-0.021 0-0.063-0.024-0.12-0.063-0.164l0 0c-0.075-0.040-0.164-0.064-0.258-0.064-0.017 0-0.035 0.001-0.052 0.002l0.002-0h-0.431v0.985h0.246v-0.431h0.123l0.062 0.123 0.246 0.308h0.246l-0.123-0.185-0.246-0.246zM21.969 31.385h-0.123v-0.246h0.308c0.026 0.023 0.042 0.056 0.042 0.092s-0.016 0.070-0.042 0.092l-0 0v0.062c-0.028 0.004-0.060 0.007-0.092 0.007s-0.065-0.003-0.096-0.007l0.003 0zM24.062 31.569h0.492v-0.185h-0.492v-0.246h0.554v-0.123h-0.738v0.985h0.738v-0.185h-0.554v-0.246z"></path>
</symbol>

<symbol id="icon-company_3" viewBox="0 0 31 32">
<path fill="#afb1b8" style="fill: var(--color3, #afb1b8)" d="M4.688 31.107c0.011-0.006 0.024-0.010 0.037-0.010s0.027 0.004 0.038 0.010l-0-0 0.149 0.149-0.372 0.372c-0.147 0.054-0.318 0.085-0.495 0.085-0.062 0-0.122-0.004-0.182-0.011l0.007 0.001c-0.016 0.001-0.035 0.001-0.053 0.001-0.167 0-0.328-0.028-0.478-0.078l0.010 0.003c-0.345-0.131-0.613-0.399-0.741-0.736l-0.003-0.009c-0.071-0.177-0.112-0.381-0.112-0.595s0.041-0.419 0.116-0.606l-0.004 0.011c0.139-0.34 0.404-0.605 0.735-0.741l0.009-0.003c0.176-0.071 0.381-0.112 0.595-0.112s0.419 0.041 0.606 0.116l-0.011-0.004 0.372 0.298-0.149 0.149h-0.298c-0.149-0.091-0.328-0.146-0.52-0.149h-0.373l-0.372 0.223-0.223 0.372v0.893c0 0.149 0.149 0.298 0.223 0.372l0.298 0.223h0.67c0.174-0.033 0.326-0.112 0.447-0.224l-0.001 0.001h0.074zM9.153 30.288c0 0.223 0 0.372-0.149 0.595l-0.223 0.447-0.447 0.298c-0.447 0.074-0.819 0.074-1.191 0l-0.447-0.372-0.298-0.447c-0.149-0.372-0.149-0.744 0-1.191 0-0.149 0.149-0.298 0.298-0.447l0.447-0.223c0.372-0.149 0.744-0.149 1.191 0 0.149 0 0.298 0.149 0.447 0.298 0.074 0.074 0.223 0.223 0.223 0.372l0.149 0.595zM8.707 30.288v-0.447l-0.223-0.372-0.372-0.149c-0.223-0.149-0.521-0.149-0.819 0-0.241 0.093-0.428 0.28-0.519 0.515l-0.002 0.006c-0.043 0.133-0.069 0.287-0.069 0.447s0.025 0.313 0.072 0.457l-0.003-0.011c0 0.149 0.074 0.223 0.223 0.372l0.298 0.223h0.819c0.255-0.108 0.447-0.324 0.519-0.589l0.001-0.006c0.074-0.149 0.149-0.298 0.074-0.447zM12.13 30.809h0.149v-0.149l0.967-1.712h0.447v2.753h-0.298v-2.233l-0.967 1.712-0.149 0.074h-0.149v-0.074l-1.042-1.712v2.233h-0.298v-2.753h0.372l1.042 1.712v0.149zM15.851 30.66v1.042h-0.372v-2.753h1.34l0.298 0.223 0.223 0.223v0.744l-0.223 0.223c-0.074 0.149-0.223 0.149-0.372 0.223-0.067 0.011-0.144 0.017-0.223 0.017s-0.156-0.006-0.232-0.018l0.008 0.001h-0.447zM15.851 30.363h0.744l0.223-0.149 0.149-0.223v-0.223c0.004-0.023 0.006-0.049 0.006-0.076 0-0.145-0.059-0.276-0.154-0.37l-0-0c-0.124-0.095-0.281-0.152-0.451-0.152-0.025 0-0.049 0.001-0.073 0.004l0.003-0h-0.447v1.191zM20.986 31.702h-0.372v-0.149l-0.298-0.67h-1.34l-0.298 0.744h-0.372l1.042-2.605h0.372l1.191 2.753zM19.126 30.66h0.967l-0.447-1.116-0.074-0.298v0.149l-0.074 0.149-0.447 1.116zM22.623 28.949h0.074l1.712 2.084v-2.084h0.298v2.753h-0.298v-0.074l-1.712-2.084v2.158h-0.298v-2.753h0.223zM27.535 30.512v1.191h-0.372v-1.191l-1.116-1.563h0.447l0.67 1.116c0.052 0.065 0.101 0.138 0.144 0.215l0.004 0.009v-0.074l0.074-0.149 0.67-1.042v-0.074h0.595l-1.116 1.563zM11.907 24.26l0.595 0.074c2.53-1.116 4.763-2.902 6.251-5.209 1.488-2.233 2.233-4.912 2.233-7.591l-2.828-2.605c0.595 2.828 0.298 5.805-0.744 8.558-1.116 2.679-2.977 5.135-5.433 6.846z"></path>
<path fill="#afb1b8" style="fill: var(--color3, #afb1b8)" d="M10.94 24.186h0.074c2.605-1.786 4.614-4.242 5.73-7.144 1.116-2.828 1.265-5.954 0.521-8.93l-4.093-3.795c1.283 2.402 2.036 5.254 2.036 8.282 0 4.433-1.615 8.489-4.289 11.612l0.020-0.024zM24.707 14.735c-0.984 3.967-3.561 7.201-6.995 9.042l-0.075 0.037c2.009-0.521 3.795-1.488 5.284-2.828s2.679-2.977 3.423-4.763l-1.637-1.563z"></path>
<path fill="#afb1b8" style="fill: var(--color3, #afb1b8)" d="M24.037 14.288l-2.307-2.233c0 2.53-0.819 5.060-2.233 7.219-1.34 2.158-3.349 3.944-5.73 5.135l1.637-0.074c2.233-0.893 4.093-2.233 5.656-4.019 1.437-1.657 2.481-3.694 2.961-5.94l0.016-0.088zM11.312 2.679l-2.828-2.679c-2.532 0.926-4.633 2.523-6.151 4.578l-0.025 0.036c-1.488 2.158-2.233 4.614-2.307 7.144 0 2.828 1.042 5.581 2.828 7.814 1.825 2.18 4.301 3.762 7.127 4.446l0.092 0.019c2.655-3.069 4.272-7.1 4.272-11.508 0-3.674-1.124-7.086-3.046-9.911l0.039 0.061zM30.512 13.842c0-3.274-1.414-6.474-3.87-8.93-2.432-2.294-5.719-3.703-9.336-3.703-1.726 0-3.377 0.321-4.897 0.907l0.093-0.032 17.116 16.372c0.595-1.488 0.893-2.977 0.893-4.614z"></path>
</symbol>

<symbol id="icon-company_4" viewBox="0 0 60 32">
<path fill="#afb1b8" style="fill: var(--color3, #afb1b8)" d="M9.228 9.526c-0.022-0.001-0.048-0.001-0.074-0.001-1.644 0-2.977 1.333-2.977 2.977 0 0 0 0.001 0 0.001v-0c0 0 0 0.001 0 0.001 0 1.644 1.333 2.977 2.977 2.977 0.026 0 0.052-0 0.078-0.001l-0.004 0c0.022 0.001 0.048 0.001 0.074 0.001 1.644 0 2.977-1.333 2.977-2.977 0-0 0-0.001 0-0.001v0c0-0 0-0.001 0-0.001 0-1.644-1.333-2.977-2.977-2.977-0.026 0-0.052 0-0.078 0.001l0.004-0zM31.702 8.633c0-2.307-0.893-4.465-2.53-6.102-1.609-1.579-3.817-2.553-6.251-2.553s-4.642 0.974-6.253 2.554l0.001-0.001c-1.603 1.543-2.601 3.706-2.605 6.102v12.503s17.637-1.786 17.637-12.502zM0 25.302c0.003 1.661 0.686 3.163 1.785 4.241l0.001 0.001c1.124 1.092 2.66 1.765 4.354 1.765s3.229-0.673 4.355-1.767l-0.002 0.001c1.1-1.079 1.783-2.58 1.786-4.241v-8.782s-12.279 1.34-12.279 8.781zM6.102 26.791c-0.298 0-0.595 0-0.893-0.223-0.223-0.149-0.447-0.372-0.521-0.744-0.079-0.176-0.125-0.382-0.125-0.598 0-0.405 0.161-0.771 0.423-1.040l-0 0c0.297-0.304 0.712-0.492 1.17-0.492 0.222 0 0.434 0.044 0.627 0.124l-0.011-0.004 0.744 0.595c0.182 0.244 0.291 0.551 0.291 0.884 0 0.449-0.198 0.851-0.512 1.124l-0.002 0.002c-0.293 0.277-0.689 0.448-1.125 0.448-0.023 0-0.046-0-0.069-0.001l0.003 0zM18.605 25.749h-1.34v1.488h-0.447v-3.2h2.009v0.298h-1.563v1.116h1.34v0.298zM21.73 25.749c0 0.223 0 0.521-0.149 0.744-0.074 0.223-0.223 0.447-0.447 0.521-0.149 0.149-0.372 0.223-0.67 0.223l-0.67-0.223-0.447-0.521-0.149-0.744v-0.223c0-0.372 0-0.595 0.149-0.819l0.447-0.521c0.223-0.149 0.447-0.223 0.744-0.223 0.223 0 0.447 0 0.595 0.149 0.223 0.149 0.372 0.372 0.447 0.595 0.149 0.223 0.149 0.447 0.149 0.744v0.223zM21.358 25.526c0.002-0.031 0.004-0.067 0.004-0.103 0-0.293-0.084-0.566-0.23-0.796l0.004 0.006c-0.137-0.184-0.354-0.301-0.598-0.301-0.025 0-0.050 0.001-0.075 0.004l0.003-0c-0.243 0-0.458 0.116-0.594 0.296l-0.001 0.002c-0.149 0.223-0.223 0.447-0.223 0.819v0.223c0 0.372 0 0.744 0.223 0.893 0.149 0.223 0.372 0.298 0.595 0.298 0.298 0 0.521-0.074 0.67-0.298s0.223-0.447 0.223-0.819v-0.223zM23.293 25.749l-0.744-0.372c-0.135-0.133-0.22-0.317-0.223-0.52v-0.001c0-0.298 0-0.447 0.298-0.67 0.149-0.149 0.447-0.223 0.744-0.223 0.223 0 0.447 0 0.595 0.149 0.149 0 0.298 0.149 0.372 0.298l0.149 0.521h-0.447c0-0.223 0-0.372-0.149-0.447-0.124-0.095-0.281-0.152-0.451-0.152-0.025 0-0.049 0.001-0.073 0.004l0.003-0c-0.032-0.005-0.069-0.008-0.107-0.008-0.124 0-0.241 0.030-0.344 0.084l0.004-0.002c-0.149 0.149-0.223 0.223-0.223 0.447 0 0.074 0 0.223 0.149 0.298l0.595 0.223 0.595 0.298c0.149 0 0.298 0.149 0.372 0.298l0.074 0.372c0 0.298-0.074 0.521-0.298 0.67s-0.447 0.223-0.744 0.223c-0.006 0-0.013 0-0.021 0-0.236 0-0.459-0.055-0.658-0.153l0.009 0.004-0.447-0.298-0.149-0.521h0.447c0 0.149 0 0.372 0.223 0.447l0.521 0.149c0.223 0 0.447 0 0.521-0.149 0.149 0 0.223-0.149 0.223-0.372 0-0.149-0.074-0.223-0.223-0.298-0.074-0.149-0.298-0.223-0.595-0.298zM27.237 24.335h-1.042v2.828h-0.372v-2.828h-1.042v-0.298h2.456v0.298zM29.47 25.749h-1.34v1.042h1.563v0.298h-2.009v-3.126h2.084v0.298h-1.563v1.042h1.34v0.372zM31.405 25.898h-0.744v1.265h-0.447v-3.126h1.042c0.372 0 0.67 0 0.819 0.223 0.223 0.149 0.298 0.372 0.298 0.744 0 0.149 0 0.298-0.149 0.447-0.074 0.149-0.223 0.298-0.447 0.372l0.744 1.34h-0.447l-0.67-1.265zM30.66 25.526h0.67c0.149 0 0.372 0 0.447-0.149 0.149-0.074 0.223-0.223 0.223-0.447l-0.223-0.447-0.447-0.149h-0.744v1.191zM34.53 25.972v1.191h-0.447v-3.126h1.191c0.372 0 0.595 0 0.744 0.223 0.298 0.223 0.372 0.447 0.372 0.744s-0.074 0.521-0.298 0.744c-0.223 0.074-0.447 0.223-0.819 0.223h-0.744zM34.53 25.6h0.744c0.223 0 0.372 0 0.521-0.149l0.149-0.447c0-0.223 0-0.372-0.149-0.447-0.133-0.135-0.317-0.22-0.52-0.223h-0.745v1.265zM38.698 25.749h-1.34v1.042h1.563v0.298h-2.009v-3.126h2.009v0.298h-1.563v1.042h1.34v0.372zM41.674 24.335h-1.042v2.828h-0.372v-2.828h-1.042v-0.298h2.456v0.298zM43.907 25.749h-1.34v1.042h1.637v0.298h-2.009v-3.126h1.935v0.298h-1.488v1.042h1.265v0.372zM45.842 25.898h-0.744v1.265h-0.372v-3.126h1.042c0.372 0 0.595 0 0.744 0.223 0.223 0.149 0.372 0.372 0.372 0.744l-0.149 0.447-0.447 0.372 0.744 1.34h-0.447l-0.744-1.265zM45.098 25.526h0.67c0.223 0 0.372 0 0.521-0.149l0.149-0.447c0-0.149 0-0.298-0.149-0.447l-0.521-0.149h-0.67v1.191zM48.372 25.749c-0.372-0.074-0.595-0.223-0.744-0.372-0.164-0.122-0.275-0.307-0.297-0.518l-0-0.003c0-0.298 0.149-0.447 0.298-0.67 0.223-0.149 0.521-0.223 0.744-0.223 0.298 0 0.447 0 0.67 0.149 0.149 0 0.298 0.149 0.372 0.298l0.149 0.521h-0.447c0-0.223 0-0.372-0.149-0.447-0.124-0.095-0.281-0.152-0.451-0.152-0.025 0-0.049 0.001-0.073 0.004l0.003-0c-0.049-0.011-0.105-0.018-0.162-0.018-0.132 0-0.255 0.034-0.363 0.094l0.004-0.002-0.149 0.447c0 0.074 0 0.223 0.149 0.298l0.595 0.223 0.595 0.298c0.149 0 0.298 0.149 0.372 0.298l0.074 0.372c0 0.298-0.074 0.521-0.298 0.67s-0.447 0.223-0.744 0.223c-0.027 0.002-0.058 0.003-0.090 0.003-0.238 0-0.463-0.056-0.663-0.155l0.009 0.004-0.372-0.298-0.149-0.521h0.447c0 0.149 0 0.372 0.149 0.447l0.595 0.149c0.223 0 0.372 0 0.521-0.149 0.149 0 0.149-0.149 0.149-0.372 0-0.149 0-0.223-0.149-0.298-0.074-0.149-0.298-0.223-0.595-0.298z"></path>
</symbol>

<symbol id="icon-company_5" viewBox="0 0 40 32">
<path fill="#afb1b8" style="fill: var(--color3, #afb1b8)" d="M3.064 26.757c0.136 0.204 0.204 0.409 0.204 0.681 0.002 0.027 0.004 0.059 0.004 0.090 0 0.313-0.132 0.595-0.344 0.794l-0.001 0.001c-0.272 0.204-0.681 0.34-1.089 0.272h-1.838v-4.357h1.838c0.34 0 0.681 0.068 1.021 0.34 0.21 0.188 0.342 0.46 0.342 0.762 0 0.019-0.001 0.038-0.002 0.057l0-0.003c0 0.204-0.068 0.477-0.204 0.681-0.136 0.136-0.34 0.272-0.545 0.272 0.204 0.068 0.477 0.204 0.613 0.409zM0.885 26.077h0.749c0.204 0 0.34 0 0.545-0.136 0.086-0.096 0.138-0.223 0.138-0.362 0-0.016-0.001-0.032-0.002-0.048l0 0.002c0.006-0.032 0.010-0.068 0.010-0.105 0-0.144-0.056-0.274-0.147-0.372l0 0-0.545-0.136h-0.749v1.157zM2.247 27.779c0.091-0.097 0.146-0.228 0.146-0.372 0-0.037-0.004-0.073-0.011-0.109l0.001 0.003c0.001-0.014 0.002-0.030 0.002-0.046 0-0.139-0.052-0.267-0.139-0.363l0 0.001c-0.204-0.136-0.34-0.204-0.545-0.204h-0.817v1.226h0.817c0.204 0 0.34 0 0.545-0.136zM6.809 28.596l-1.021-1.702h-0.409v1.702h-0.885v-4.357h1.702c0.409 0 0.817 0.136 1.157 0.409 0.225 0.242 0.362 0.567 0.362 0.925 0 0.321-0.111 0.615-0.296 0.848l0.002-0.003c-0.186 0.233-0.444 0.402-0.74 0.475l-0.009 0.002 1.089 1.702h-0.953zM5.447 26.349h0.681c0.477 0 0.681-0.272 0.681-0.681 0.002-0.019 0.003-0.042 0.003-0.064 0-0.156-0.052-0.299-0.14-0.414l0.001 0.002c-0.136-0.136-0.34-0.204-0.545-0.204h-0.681v1.362zM11.574 27.711h-1.77l-0.272 0.885h-0.953l1.634-4.289h0.953l1.634 4.289h-0.953l-0.272-0.885zM11.302 27.030l-0.613-1.77-0.681 1.838h1.362zM17.566 28.596h-0.885l-1.974-2.928v2.928h-0.817v-4.357h0.817l1.974 2.996v-2.996h0.885v4.357zM22.468 27.574c-0.136 0.34-0.409 0.613-0.749 0.749-0.409 0.204-0.817 0.272-1.226 0.272h-1.566v-4.357h1.566c0.409 0 0.817 0.068 1.226 0.272 0.34 0.204 0.613 0.477 0.749 0.749 0.177 0.336 0.282 0.735 0.282 1.157s-0.104 0.821-0.288 1.171l0.007-0.014zM21.515 27.438c0.223-0.277 0.358-0.633 0.358-1.021s-0.135-0.744-0.361-1.024l0.002 0.003c-0.272-0.272-0.681-0.409-1.089-0.409h-0.613v2.928h0.613c0.409 0 0.817-0.136 1.089-0.409zM12.119 0s11.166 4.221 10.894 10.417v10.349s-11.098-4.221-10.894-10.349v-10.417zM33.021 18.383c2.179-1.498 4.562-2.383 7.149-2.723v-3.2c-2.928 1.157-5.447 3.2-7.149 5.855z"></path>
<path fill="#afb1b8" style="fill: var(--color3, #afb1b8)" d="M31.796 19.336c1.702-3.54 4.766-6.196 8.374-7.557v-9.396s-15.932 6.128-15.66 14.843v14.774l1.906-0.749v-1.43c0.34-4.085 2.247-7.83 5.379-10.485z"></path>
<path fill="#afb1b8" style="fill: var(--color3, #afb1b8)" d="M30.298 24.851c0-1.021 0.272-2.043 0.545-3.064-2.046 2.393-3.319 5.499-3.404 8.901l-0 0.018c1.306-0.606 2.311-1.128 3.293-1.686l-0.229 0.12c-0.272-1.43-0.34-2.86-0.204-4.289zM30.911 24.851c-0.136 1.362 0 2.655 0.204 3.881 4.357-2.587 9.26-6.604 9.055-11.574v-0.409c-3.257 0.391-6.123 1.824-8.31 3.952l0.003-0.003c-0.545 1.362-0.817 2.723-0.953 4.153z"></path>
</symbol>

<symbol id="icon-company_6" viewBox="0 0 62 32">
<path fill="#afb1b8" style="fill: var(--color3, #afb1b8)" d="M31.096 14.887c-0.278-0.487-0.417-0.974-0.348-1.461v-2.087c0-0.626 0.139-1.113 0.348-1.391 0.278-0.348 0.696-0.557 1.391-0.557 0.626 0 1.043 0.139 1.252 0.417 0.278 0.348 0.417 0.835 0.417 1.252v0.487h-1.113v-0.904l-0.139-0.278c-0.098-0.088-0.228-0.141-0.37-0.141-0.017 0-0.033 0.001-0.049 0.002l0.002-0c-0.139 0-0.278 0-0.417 0.139l-0.139 0.348-0.070 0.487v2.504c0 0.278 0 0.487 0.139 0.696l0.209 0.209h0.278l0.348-0.070c0.139-0.070 0.209-0.209 0.209-0.348v-0.974h1.113v0.417c0.003 0.040 0.004 0.086 0.004 0.133 0 0.475-0.158 0.912-0.425 1.263l0.004-0.005c-0.209 0.278-0.696 0.417-1.252 0.417-0.696 0-1.113-0.209-1.391-0.487zM35.617 14.887c-0.278-0.348-0.417-0.835-0.417-1.391v-2.226c0-0.626 0.139-1.043 0.417-1.391s0.696-0.487 1.391-0.487c0.626 0 1.043 0.139 1.322 0.487s0.417 0.765 0.417 1.391v2.157c0 0.696-0.139 1.113-0.417 1.391-0.278 0.348-0.696 0.557-1.391 0.557-0.626 0-1.043-0.209-1.391-0.487zM37.496 14.33l0.139-0.626v-2.643c0-0.278 0-0.487-0.139-0.696l-0.209-0.139h-0.696l-0.209 0.209-0.139 0.626v2.643c0 0.209 0 0.487 0.139 0.696 0.124 0.127 0.296 0.206 0.486 0.209h0.001c0.227 0 0.428-0.109 0.555-0.277l0.001-0.002zM40.070 9.461h1.113l0.904 4.035 0.904-4.035h1.113l0.070 5.843h-0.835v-4.035l-0.904 4.035h-0.696l-0.904-4.174v4.174h-0.904l0.139-5.843zM45.496 9.461h1.809c1.043 0 1.53 0.557 1.53 1.67 0 1.043-0.487 1.6-1.6 1.6h-0.626v2.574h-1.113v-5.843zM47.026 11.965c0.040 0.007 0.085 0.010 0.132 0.010 0.218 0 0.416-0.083 0.564-0.22l-0.001 0.001c0-0.209 0.139-0.417 0.070-0.696v-0.487c-0.041-0.134-0.145-0.237-0.275-0.277l-0.003-0.001-0.487-0.070h-0.417v1.739h0.417zM50.504 9.461h1.183l1.183 5.843h-1.043l-0.209-1.391h-1.043l-0.278 1.391h-1.043l1.252-5.843zM51.478 13.287l-0.417-2.435-0.417 2.435h0.835zM53.913 9.461h0.696l1.53 3.339v-3.339h0.974v5.843h-0.765l-1.53-3.478v3.478h-0.904v-5.843zM59.27 13.078l-1.252-3.617h1.043l0.696 2.296 0.765-2.296h1.043l-1.252 3.617v2.226h-1.043v-2.226zM32.835 17.809v0.348h-0.835v2.365h-0.348v-2.435h-1.043v-0.348h2.226zM35.687 20.522h-0.278l-0.070-0.139-0.278-0.626h-1.252l-0.278 0.696h-0.417l1.113-2.643h0.417l1.113 2.713zM33.878 19.478h1.043l-0.487-1.043v-0.348l-0.139 0.278-0.417 1.043zM37.565 20.174h0.278c0.052 0.009 0.112 0.014 0.174 0.014s0.122-0.005 0.18-0.015l-0.006 0.001 0.139-0.070v-0.626h-0.487v-0.278h0.835v1.043c-0.216 0.148-0.477 0.248-0.758 0.278l-0.007 0.001h-0.348l-0.557-0.070c-0.492-0.177-0.837-0.639-0.837-1.181 0-0.025 0.001-0.050 0.002-0.074l-0 0.003c0-0.209 0-0.417 0.139-0.626 0.13-0.318 0.378-0.566 0.687-0.693l0.008-0.003 0.626-0.070c0.006-0 0.014-0 0.022-0 0.19 0 0.374 0.025 0.549 0.073l-0.015-0.003c0.163 0.067 0.301 0.161 0.417 0.278l0 0-0.139 0.139h-0.209l-0.209-0.070c-0.135-0.050-0.29-0.080-0.452-0.080s-0.318 0.029-0.461 0.083l0.009-0.003c-0.139 0-0.209 0.070-0.278 0.209-0.139 0.070-0.209 0.209-0.209 0.278-0.048 0.135-0.076 0.29-0.076 0.452s0.028 0.317 0.078 0.462l-0.003-0.010c0.144 0.37 0.497 0.628 0.91 0.628 0.022 0 0.044-0.001 0.066-0.002l-0.003 0zM41.183 20.174h1.183v0.348h-1.6v-2.713h0.417v2.365zM43.687 20.522h-0.417v-2.713h0.417v2.713zM45.078 17.809v0.070l1.67 2.017v-2.087h0.348v2.713h-0.278v-0.070l-1.67-2.087v2.226h-0.348v-2.713h0.209zM49.878 17.809v0.278h-1.391v0.904h1.183v0.278h-1.113v0.904h1.391v0.278h-1.809v-2.643h1.739zM9.948 1.391l16.904 4.522v16l-16.904-4.591v-16zM8.835 0v18.087l19.13 5.148v-18.087l-19.13-5.148z"></path>
<path fill="#afb1b8" style="fill: var(--color3, #afb1b8)" d="M19.13 31.583l-19.13-5.078v-18.157l19.13 5.078v18.087z"></path>
<path fill="#afb1b8" style="fill: var(--color3, #afb1b8)" d="M9.183 1.183l16.696 4.452-7.096 6.748-16.696-4.522 7.096-6.678zM8.835 0l-8.835 8.348 19.13 5.148 8.835-8.348-19.13-5.148zM20.174 30.609l7.791-7.374-7.791-2.087v9.461z"></path>
</symbol>

<symbol id="icon-diagram" viewBox="0 0 32 32">
<path fill="#2196f3" style="fill: var(--color2, #2196f3)" d="M14.903 14.949h1.097v4.8h-1.097v-4.8zM19.2 17.097h1.051v2.651h-1.051v-2.651zM10.651 18.697h1.097v1.051h-1.097v-1.006zM7.451 18.149h1.097v1.6h-1.097v-1.6z"></path>
<path fill="#212121" style="fill: var(--color1, #212121)" d="M1.6 28.297h25.6c0.869 0 1.6-0.731 1.6-1.6v-2.149c0-0.914-0.731-1.6-1.6-1.6h-0.549v-13.257l3.017-2.88c0.213 0.112 0.465 0.178 0.733 0.178 0.884 0 1.6-0.716 1.6-1.6s-0.716-1.6-1.6-1.6c-0.884 0-1.6 0.716-1.6 1.6 0 0.234 0.050 0.455 0.14 0.655l-0.004-0.010-2.286 2.149v-1.234c0-0.869-0.731-1.6-1.6-1.6h-21.303c-0.914 0-1.6 0.731-1.6 1.6v16h-0.549c-0.914 0-1.6 0.731-1.6 1.6v2.149c0 0.914 0.731 1.6 1.6 1.6zM30.4 4.846c0.047-0.014 0.101-0.023 0.157-0.023 0.303 0 0.549 0.246 0.549 0.549s-0.246 0.549-0.549 0.549c-0.056 0-0.11-0.008-0.161-0.024l0.004 0.001c-0.229-0.070-0.392-0.279-0.392-0.526s0.163-0.456 0.388-0.525l0.004-0.001zM3.2 6.949c0-0.274 0.229-0.503 0.549-0.503h21.303c0.274 0 0.549 0.229 0.549 0.503v2.286l-1.097 1.006v-2.194c0-0.32-0.229-0.549-0.503-0.549h-19.2c-0.274 0-0.549 0.229-0.549 0.549v13.303c0 0.32 0.274 0.549 0.549 0.549h19.2c0.274 0 0.503-0.229 0.503-0.549v-9.646l1.097-1.006v12.251h-22.4v-16zM8 13.897c-0.007-0-0.015-0-0.022-0-0.884 0-1.6 0.716-1.6 1.6s0.716 1.6 1.6 1.6c0.436 0 0.831-0.174 1.12-0.457l-0 0 1.829 0.914c0.229 0.137 0.503 0.091 0.686-0.091l3.931-4.434 3.84 2.88c0.229 0.183 0.503 0.137 0.686 0l3.383-3.2v8.137h-18.103v-12.297h18.103v2.697l-3.749 3.566-3.931-2.926c-0.229-0.183-0.549-0.137-0.731 0.046l-3.977 4.526-1.463-0.777v-0.137c0-0.914-0.686-1.6-1.554-1.6zM8.549 15.497c0 0.303-0.246 0.549-0.549 0.549s-0.549-0.246-0.549-0.549v0c0-0.303 0.246-0.549 0.549-0.549s0.549 0.246 0.549 0.549v0zM11.749 24.046h5.303v0.503c0 0.32-0.229 0.549-0.549 0.549h-4.251c-0.274 0-0.503-0.229-0.503-0.549v-0.503zM1.051 24.549c0-0.274 0.274-0.503 0.549-0.503h9.051v0.503c0 0.914 0.731 1.6 1.6 1.6h4.251c0.914 0 1.6-0.686 1.6-1.6v-0.503h9.097c0.274 0 0.503 0.229 0.503 0.503v2.149c0 0.274-0.229 0.549-0.503 0.549h-25.6c-0.274 0-0.549-0.274-0.549-0.549v-2.149z"></path>
</symbol>

<symbol id="icon-envelope" viewBox="0 0 43 32">
<path  d="M38.667 0h-34.667c-2.133 0-4 1.6-4 3.733v22.4c0 2.133 1.867 3.733 4 3.733h34.667c2.133 0 4-1.6 4-3.733v-22.4c0-2.133-1.867-3.733-4-3.733zM38.667 2.667h0.533l-17.867 14.4-17.867-14.4h35.2zM38.667 27.467h-34.667c-0.8 0-1.333-0.533-1.333-1.333v-20.8l17.867 14.4h1.6l17.867-14.4v20.8c0 0.8-0.533 1.333-1.333 1.333z"></path>
</symbol>

<symbol id="icon-facebook" viewBox="0 0 32 32">
<path  d="M21.28 5.28h3.040v-5.12l-4.32-0.16c-4.16 0-7.040 2.72-7.040 7.52v4.48h-4.96v5.76h4.8v14.24h5.6v-14.4h4.48l0.8-5.6h-5.28v-3.84c0-1.6 0.48-2.88 2.72-2.88z"></path>
</symbol>

<symbol id="icon-instagram" viewBox="0 0 32 32">
<path  d="M32 9.44c0-1.6-0.32-2.88-0.8-3.84-0.32-1.12-0.96-2.080-1.76-2.88-0.79-0.823-1.751-1.475-2.826-1.901l-0.054-0.019c-3.142-0.321-6.79-0.504-10.48-0.504s-7.338 0.183-10.934 0.541l0.454-0.037c-1.12 0.48-2.080 1.12-2.88 1.92-0.746 0.756-1.342 1.661-1.741 2.666l-0.019 0.054c-0.48 1.12-0.96 2.24-0.96 4.16-0.035 1.038-0.056 2.258-0.056 3.482 0 4.808 0.311 9.543 0.914 14.186l-0.058-0.548c0.418 1.059 1.014 1.964 1.761 2.721l-0.001-0.001c0.79 0.823 1.751 1.475 2.826 1.901l0.054 0.019c0.96 0.32 2.080 0.64 3.84 0.64 1.251 0.048 2.721 0.075 4.196 0.075 4.553 0 9.045-0.26 13.463-0.765l-0.54 0.050c2.227-0.846 3.954-2.573 4.781-4.744l0.019-0.056 0.64-3.84c0.173-2.39 0.272-5.179 0.272-7.99 0-1.804-0.041-3.599-0.121-5.384l0.009 0.254zM29.12 22.4c0 1.6-0.32 2.4-0.64 3.040-0.48 1.44-1.6 2.56-3.040 3.040-0.48 0.16-1.28 0.48-2.88 0.48-1.382 0.061-3.002 0.095-4.631 0.095-4.004 0-7.959-0.209-11.856-0.616l0.487 0.041c-0.688-0.254-1.276-0.635-1.76-1.12l-0-0c-0.48-0.64-0.96-1.28-1.12-1.92-0.32-0.48-0.64-1.44-0.64-3.040-0.032-1.008-0.051-2.194-0.051-3.384 0-4.389 0.251-8.718 0.739-12.976l-0.049 0.52c0.16-0.64 0.64-1.28 1.12-1.76 0.48-0.64 1.12-0.96 1.76-1.28 0.64-0.16 1.6-0.48 3.2-0.48 1.312-0.055 2.851-0.086 4.397-0.086 3.974 0 7.9 0.205 11.767 0.606l-0.484-0.041c0.8 0.32 1.44 0.64 1.92 1.28 0.48 0.48 0.96 1.12 1.12 1.76 0.32 0.64 0.48 1.44 0.64 3.040 0.116 1.913 0.182 4.149 0.182 6.4s-0.066 4.487-0.196 6.706l0.014-0.306z"></path>
<path  d="M16 7.84c-0.342-0.051-0.738-0.080-1.14-0.080-4.507 0-8.16 3.653-8.16 8.16s3.653 8.16 8.16 8.16c0.402 0 0.797-0.029 1.184-0.085l-0.044 0.005c3.763-0.776 6.552-4.062 6.552-8s-2.789-7.224-6.499-7.991l-0.053-0.009zM16 21.28c-2.916 0-5.28-2.364-5.28-5.28s2.364-5.28 5.28-5.28v0c2.916 0 5.28 2.364 5.28 5.28s-2.364 5.28-5.28 5.28v0zM26.56 7.52c0 1.060-0.86 1.92-1.92 1.92s-1.92-0.86-1.92-1.92v0c0-1.060 0.86-1.92 1.92-1.92s1.92 0.86 1.92 1.92v0z"></path>
</symbol>

<symbol id="icon-linkedin" viewBox="0 0 32 32">
<path  d="M32 32v-11.68c0-5.76-1.28-10.24-8-10.24-3.2 0-5.28 1.76-6.24 3.52v-3.040h-6.56v21.44h6.56v-10.56c0-2.88 0.48-5.44 4-5.44 3.36 0 3.52 3.2 3.52 5.6v10.4h6.72zM0.48 10.56h6.72v21.44h-6.72v-21.44zM3.84 0c-2.080 0-3.84 1.6-3.84 3.84 0 2.080 1.6 3.84 3.84 3.84 2.121 0 3.84-1.719 3.84-3.84s-1.719-3.84-3.84-3.84v0z"></path>
</symbol>

<symbol id="icon-plane" viewBox="0 0 32 32">
<path fill="#fff" style="fill: var(--color5, #fff)" d="M32 0l-32 18 10.267 3.733 15.733-14.667-12 16v8.933l5.733-6.667 7.333 2.667 4.933-28z"></path>
</symbol>

<symbol id="icon-smartphone" viewBox="0 0 21 32">
<path  d="M18.133 0h-14.933c-1.707 0-3.2 1.28-3.2 2.987v25.813c0 1.707 1.493 2.987 3.2 2.987h14.933c1.707 0 3.2-1.28 3.2-2.987v-25.813c0-1.707-1.493-2.987-3.2-2.987zM3.2 2.133h14.933c0.64 0 1.067 0.213 1.067 0.853v20.907h-17.067v-20.907c0-0.64 0.427-1.067 1.067-1.067zM18.133 29.867h-14.933c-0.64 0-1.067-0.427-1.067-1.067v-2.987h17.067v2.987c0 0.64-0.427 1.067-1.067 1.067z"></path>
<path  d="M5.12 27.093v1.493c-0.427 0.427-1.28 0.427-1.707 0-0.264-0.148-0.44-0.427-0.44-0.747s0.176-0.598 0.436-0.744l0.004-0.002c0.427-0.213 1.28-0.213 1.707 0z"></path>
</symbol>

<symbol id="icon-twitter" viewBox="0 0 32 32">
<path d="M32 6.080c-1.12 0.48-2.4 0.8-3.84 0.96 1.347-0.785 2.365-2.010 2.867-3.475l0.013-0.045c-1.28 0.8-2.56 1.28-4.16 1.6-1.201-1.288-2.908-2.091-4.803-2.091-3.623 0-6.56 2.937-6.56 6.56 0 0.515 0.059 1.015 0.171 1.496l-0.009-0.044c-5.44-0.32-10.24-2.88-13.44-6.88-0.562 0.947-0.894 2.088-0.894 3.307 0 2.289 1.173 4.305 2.95 5.478l0.025 0.015c-1.117-0.011-2.163-0.306-3.072-0.817l0.032 0.017c0 3.2 2.24 5.92 5.28 6.4-0.553 0.173-1.188 0.272-1.847 0.272-0.422 0-0.835-0.041-1.234-0.119l0.040 0.007c0.96 2.72 3.2 4.64 6.24 4.64-2.212 1.759-5.047 2.822-8.129 2.822-0.575 0-1.141-0.037-1.697-0.109l0.066 0.007c2.88 1.92 6.4 2.72 10.080 2.72 0.003 0 0.007 0 0.011 0 10.25 0 18.56-8.31 18.56-18.56 0-0.225-0.004-0.449-0.012-0.672l0.001 0.032c1.44-0.96 2.4-2.080 3.36-3.36z"></path>
</symbol>
</defs>
</svg>
