<svg width="80" height="43" fill="none" xmlns="http://www.w3.org/2000/svg"><path d="M12.4 12.8a4 4 0 00-4.1 4 4 4 0 004.1 4 4 4 0 004.1-4 4 4 0 00-4.1-4zM42.6 11.6c0-3.1-1.2-6-3.4-8.2a12 12 0 00-16.8 0 11.4 11.4 0 00-3.5 8.2v16.8S42.6 26 42.6 11.6zM0 34a8 8 0 002.4 5.7 8.4 8.4 0 0011.7 0 8 8 0 002.4-5.7V22.2S0 24 0 34zm8.2 2c-.4 0-.8 0-1.2-.3-.3-.2-.6-.5-.7-1a2 2 0 01.4-2.2 2.2 2.2 0 012.4-.5l1 .8a2 2 0 01-.3 2.7 2.2 2.2 0 01-1.6.6zM25 34.6h-1.8v2h-.6v-4.3h2.7v.4h-2.1v1.5H25v.4zm4.2 0c0 .3 0 .7-.2 1-.1.3-.3.6-.6.7-.2.2-.5.3-.9.3l-.9-.3-.6-.7-.2-1v-.3c0-.5 0-.8.2-1.1l.6-.7c.3-.2.6-.3 1-.3.3 0 .6 0 .8.2.3.2.5.5.6.8.2.3.2.6.2 1v.3zm-.5-.3a2 2 0 00-.3-1.2 1 1 0 00-.9-.4 1 1 0 00-.8.4c-.2.3-.3.6-.3 1.1v.3c0 .5 0 1 .3 1.2.2.3.5.4.8.4.4 0 .7-.1.9-.4.2-.3.3-.6.3-1.1v-.3zm2.6.3l-1-.5a1 1 0 01-.3-.7c0-.4 0-.6.4-.9.2-.2.6-.3 1-.3.3 0 .6 0 .8.2.2 0 .4.2.5.4l.2.7h-.6c0-.3 0-.5-.2-.6a1 1 0 00-.7-.2 1 1 0 00-.6.1c-.2.2-.3.3-.3.6 0 .1 0 .3.2.4l.8.3.8.4c.2 0 .4.2.5.4l.1.5c0 .4-.1.7-.4.9-.3.2-.6.3-1 .3a2 2 0 01-.9-.2L30 36l-.2-.7h.6c0 .2 0 .5.3.6l.7.2c.3 0 .6 0 .7-.2.2 0 .3-.2.3-.5 0-.2-.1-.3-.3-.4-.1-.2-.4-.3-.8-.4zm5.3-1.9h-1.4v3.8h-.5v-3.8h-1.4v-.4h3.3v.4zm3 1.9h-1.8V36h2.1v.4h-2.7v-4.2H40v.4h-2.1v1.4h1.8v.5zm2.6.2h-1v1.7h-.6v-4.2H42c.5 0 .9 0 1.1.3.3.2.4.5.4 1 0 .2 0 .4-.2.6-.1.2-.3.4-.6.5l1 1.8h-.6l-.9-1.7zm-1-.5h.9c.2 0 .5 0 .6-.2.2-.1.3-.3.3-.6l-.3-.6-.6-.2h-1v1.6zm5.2.6v1.6h-.6v-4.2h1.6c.5 0 .8 0 1 .3.4.3.5.6.5 1s-.1.7-.4 1c-.3.1-.6.3-1.1.3h-1zm0-.5h1c.3 0 .5 0 .7-.2l.2-.6c0-.3 0-.5-.2-.6a1 1 0 00-.7-.3h-1v1.7zm5.6.2h-1.8V36h2.1v.4h-2.7v-4.2h2.7v.4h-2.1v1.4H52v.5zm4-1.9h-1.4v3.8h-.5v-3.8h-1.4v-.4H56v.4zm3 1.9h-1.8V36h2.2v.4h-2.7v-4.2h2.6v.4h-2v1.4H59v.5zm2.6.2h-1v1.7h-.5v-4.2h1.4c.5 0 .8 0 1 .3.3.2.5.5.5 1l-.2.6-.6.5 1 1.8h-.6l-1-1.7zm-1-.5h.9c.3 0 .5 0 .7-.2l.2-.6c0-.2 0-.4-.2-.6l-.7-.2h-.9v1.6zm4.4.3c-.5-.1-.8-.3-1-.5a1 1 0 01-.4-.7c0-.4.2-.6.4-.9.3-.2.7-.3 1-.3.4 0 .6 0 .9.2.2 0 .4.2.5.4l.2.7H66c0-.3 0-.5-.2-.6a1 1 0 00-.7-.2 1 1 0 00-.7.1l-.2.6c0 .1 0 .3.2.4l.8.3.8.4c.2 0 .4.2.5.4l.1.5c0 .4-.1.7-.4.9-.3.2-.6.3-1 .3a2 2 0 01-1-.2l-.5-.4-.2-.7h.6c0 .2 0 .5.2.6l.8.2c.3 0 .5 0 .7-.2.2 0 .2-.2.2-.5 0-.2 0-.3-.2-.4-.1-.2-.4-.3-.8-.4z" fill="#AFB1B8"/></svg>