<svg width="41" height="43" fill="none" xmlns="http://www.w3.org/2000/svg"><path d="M6.3 41.8a.1.1 0 01.1 0l.2.2-.5.5a2 2 0 01-.9.1 2 2 0 01-.7-.1 1.7 1.7 0 01-1-1 2.2 2.2 0 010-1.6 1.8 1.8 0 011-1 2.2 2.2 0 011.6 0l.5.4-.2.2H6a1.4 1.4 0 00-.7-.2h-.5l-.5.3-.3.5v.6.6c0 .2.2.4.3.5l.4.3H5.6a1.2 1.2 0 00.6-.3h.1zM12.3 40.7c0 .3 0 .5-.2.8l-.3.6-.6.4c-.6.1-1.1.1-1.6 0L9 42l-.4-.6c-.2-.5-.2-1 0-1.6 0-.2.2-.4.4-.6l.6-.3c.5-.2 1-.2 1.6 0 .2 0 .4.2.6.4.1.1.3.3.3.5l.2.8zm-.6 0v-.6l-.3-.5-.5-.2c-.3-.2-.7-.2-1.1 0a1.2 1.2 0 00-.7.7 2 2 0 000 1.2c0 .2.1.3.3.5l.4.3h1.1a1.2 1.2 0 00.7-.8c.1-.2.2-.4.1-.6zM16.3 41.4h.2v-.2l1.3-2.3H18.4v3.7H18v-2.8-.2l-1.3 2.3-.2.1h-.2v-.1l-1.4-2.3v3h-.4v-3.7h.5l1.4 2.3v.2zM21.3 41.2v1.4h-.5v-3.7h1.8l.4.3.3.3v1l-.3.3c-.1.2-.3.2-.5.3a2 2 0 01-.6 0h-.6zm0-.4h1l.3-.2.2-.3V40a.7.7 0 00-.2-.6 1 1 0 00-.7-.2h-.6v1.6zM28.2 42.6h-.4-.1v-.2l-.4-.9h-1.8l-.4 1h-.5L26 39h.5l1.6 3.7zm-2.5-1.4H27l-.6-1.5-.1-.4v.2l-.1.2-.6 1.5zM30.4 38.9h.1l2.3 2.8v-.1-2.7h.4v3.7H33h-.2v-.1l-2.3-2.8V42.6h-.4v-3.7H30.4zM37 41v1.6h-.5V41L35 38.9h.6l.9 1.5a2.3 2.3 0 01.2.3v-.1l.1-.2.9-1.4v-.1H38.5L37 41zM16 32.6l.8.1c3.4-1.5 6.4-3.9 8.4-7 2-3 3-6.6 3-10.2L24.4 12c.8 3.8.4 7.8-1 11.5-1.5 3.6-4 6.9-7.3 9.2z" fill="#AFB1B8"/><path d="M14.7 32.5h.1c3.5-2.4 6.2-5.7 7.7-9.6 1.5-3.8 1.7-8 .7-12l-5.5-5.1a24 24 0 01-3 26.7zM33.2 19.8A18.8 18.8 0 0123.7 32c2.7-.7 5.1-2 7.1-3.8 2-1.8 3.6-4 4.6-6.4l-2.2-2.1z" fill="#AFB1B8"/><path d="M32.3 19.2l-3.1-3c0 3.4-1.1 6.8-3 9.7-1.8 2.9-4.5 5.3-7.7 6.9l2.2-.1c3-1.2 5.5-3 7.6-5.4a18 18 0 004-8.1zM15.2 3.6L11.4 0a17.7 17.7 0 00-8.3 6.2c-2 2.9-3 6.2-3.1 9.6 0 3.8 1.4 7.5 3.8 10.5a18 18 0 009.7 6 23.7 23.7 0 001.7-28.7zM41 18.6c0-4.4-1.9-8.7-5.2-12a18.3 18.3 0 00-19-3.8l23 22c.8-2 1.2-4 1.2-6.2z" fill="#AFB1B8"/></svg>