<svg width="89" height="46" fill="none" xmlns="http://www.w3.org/2000/svg"><path d="M44.7 21.4c-.4-.7-.6-1.4-.5-2.1v-3c0-.9.2-1.6.5-2 .4-.5 1-.8 2-.8.9 0 1.5.2 1.8.6.4.5.6 1.2.6 1.8v.7h-1.6V16v-.7l-.2-.4a.8.8 0 00-.6-.2c-.2 0-.4 0-.6.2l-.2.5-.1.7v3.6c0 .4 0 .7.2 1l.3.3h.4l.5-.1c.2-.1.3-.3.3-.5V19h1.6v.6a3 3 0 01-.6 2c-.3.4-1 .6-1.8.6-1 0-1.6-.3-2-.7zM51.2 21.4c-.4-.5-.6-1.2-.6-2v-3.2c0-.9.2-1.5.6-2 .4-.5 1-.7 2-.7.9 0 1.5.2 1.9.7.4.5.6 1.1.6 2v3.1c0 1-.2 1.6-.6 2-.4.5-1 .8-2 .8-.9 0-1.5-.3-2-.7zm2.7-.8l.2-.9v-3.8c0-.4 0-.7-.2-1l-.3-.2H53h-.4l-.3.3-.2.9v3.8c0 .3 0 .7.2 1a1 1 0 00.7.3 1 1 0 00.8-.4zM57.6 13.6h1.6l1.3 5.8 1.3-5.8h1.6l.1 8.4h-1.2v-5.8L61 22h-1L58.7 16V22h-1.3l.2-8.4zM65.4 13.6H68c1.5 0 2.2.8 2.2 2.4 0 1.5-.7 2.3-2.3 2.3H67V22h-1.6v-8.4zm2.2 3.6a1.2 1.2 0 001-.3c0-.3.2-.6.1-1v-.7a.6.6 0 00-.4-.4l-.7-.1H67v2.5h.6zM72.6 13.6h1.7L76 22h-1.5l-.3-2h-1.5l-.4 2h-1.5l1.8-8.4zm1.4 5.5l-.6-3.5-.6 3.5H74zM77.5 13.6h1l2.2 4.8v-4.8h1.4V22H81l-2.2-5v5h-1.3v-8.4zM85.2 18.8l-1.8-5.2h1.5l1 3.3 1.1-3.3h1.5l-1.8 5.2V22h-1.5v-3.2zM47.2 25.6v.5H46v3.4h-.5V26H44v-.5h3.2zM51.3 29.5H51h-.1l-.1-.2-.4-.9h-1.8l-.4 1h-.6l1.6-3.8h.6l1.6 3.9zM48.7 28h1.5l-.7-1.5V26l-.1.2-.1.2-.6 1.5zM54 29h.4a1.6 1.6 0 00.5 0l.2-.1V28h-.7v-.4h1.2v1.5a2.4 2.4 0 01-1.1.4H54l-.8-.1a1.8 1.8 0 01-1.2-1.8c0-.3 0-.6.2-.9a1.8 1.8 0 011-1l.9-.1a3 3 0 01.8.1 1.8 1.8 0 01.6.4l-.2.2H55 55l-.3-.1a1.9 1.9 0 00-1.3 0c-.2 0-.3.1-.4.3-.2.1-.3.3-.3.4a2 2 0 000 1.3 1.4 1.4 0 001.4.9zM59.2 29h1.7v.5h-2.3v-3.9h.6V29zM62.8 29.5h-.6v-3.9h.6v3.9zM64.8 25.6v.1l2.4 2.9v-.1V25.6h.5v3.9h-.3-.1v-.1l-2.4-3V29.6h-.5v-3.9h.3zM71.7 25.6v.4h-2v1.3h1.7v.4h-1.6V29h2v.4h-2.6v-3.8h2.5zM14.3 2l24.3 6.5v23l-24.3-6.6v-23zm-1.6-2v26l27.5 7.4v-26L12.7 0z" fill="#AFB1B8"/><path d="M27.5 45.4L0 38.1V12l27.5 7.3v26z" fill="#AFB1B8"/><path d="M13.2 1.7l24 6.4L27 17.8 3 11.3l10.2-9.6zM12.7 0L0 12l27.5 7.4 12.7-12L12.7 0zM29 44l11.2-10.6-11.2-3V44z" fill="#AFB1B8"/></svg>