<svg width="45" height="50" fill="none" xmlns="http://www.w3.org/2000/svg"><path d="M6 0l7.3 7h20.4v19.2l7.3 7V0H6z" fill="#AFB1B8"/><path d="M0 6.6v32.2h34V26L13.5 6.6H0zm27.5 27.5H5.4V12.5h1.5v20.1h20.6v1.5zM9.8 44.7l.8-1.6h.8l-1.2 2.3v1.3h-.8v-1.3L8.3 43H9l.7 1.6zm3.5 1.2H12l-.2.8H11l1.3-3.6h.7l1.3 3.6h-.7l-.3-.8zm-1-.6h.8l-.4-1.3-.5 1.3zm3.5.4l.1-.5.5-.4-.2-.4-.1-.4c0-.3 0-.5.2-.7.2-.2.5-.2.8-.2.2 0 .4 0 .6.2.2.1.3.3.3.6s-.2.5-.5.7l-.2.2.6.7.1-.6h.6c0 .5 0 .8-.3 1.1l.5.7H18l-.2-.3c-.2.2-.5.3-.9.3-.3 0-.6 0-.8-.3a1 1 0 01-.3-.7zm1.2.4l.5-.1-.7-.8h-.1l-.2.5.1.3.4.1zm-.3-2.1c0 .1 0 .3.2.4h.2l.2-.3V44v-.2H17h-.2v.3zm6.5 1.5c0 .4-.1.7-.4.9-.2.2-.6.3-1 .3s-.8-.2-1-.5c-.3-.3-.5-.7-.5-1.2v-.2l.2-1a1.3 1.3 0 011.3-.7c.4 0 .8 0 1 .3.3.2.4.5.4 1h-.7c0-.3 0-.5-.2-.6l-.5-.1c-.2 0-.4 0-.5.2-.2.2-.2.5-.2.8v.3c0 .4 0 .7.2.8 0 .2.3.3.5.3l.5-.1.2-.5h.7zm3.4-.5l-.1.9a1.4 1.4 0 01-1.4.8c-.3 0-.5 0-.8-.2l-.5-.6a2 2 0 01-.2-1v-.1c0-.3 0-.7.2-1a1.4 1.4 0 011.3-.7c.3 0 .6 0 .8.2.2.1.4.3.5.6.2.2.2.6.2.9v.2zm-.7-.2c0-.4 0-.7-.2-.9a.7.7 0 00-.6-.2c-.2 0-.4 0-.5.2-.2.2-.2.5-.2.9v.2c0 .3 0 .6.2.8 0 .2.3.3.5.3.3 0 .5 0 .6-.3l.2-.8v-.2z" fill="#AFB1B8"/></svg>